# xmcd
#
# Track frame offsets:
#	150
#	2315
#	17352
#	33848
#	48181
#	60897
#	66894
#	75530
#	82931
#	93769
#	105271
#	118039
#	126538
#	134704
#	148586
#	162872
#	174689
#	181564
#	189835
#	201160
#	212590
#	223719
#	237047
#	247705
#	256316
#	272715
#	284247
#	299639
#	348758
#
# Disc length: 4668 seconds
#
# Revision: 1
# Processed by: cddbd v1.4PL0 Copyright (c) Steve Scherf et al.
# Submitted via: EasyCDDAExtractor 5.0.6
#
DISCID=8a123a1d
DTITLE=Dj Duda - Forró
DYEAR=2003
DGENRE=country
TTITLE0=Abertura
TTITLE1=Castigo
TTITLE2=Enche Bailão
TTITLE3=Folha de Ortiga
TTITLE4=Lambada Chamegar
TTITLE5=Amor de Rapariga
TTITLE6=Resposta da Rapariga 1
TTITLE7=Resposta da Rapariga 2
TTITLE8=Patricinha
TTITLE9=Dançando Calypso
TTITLE10=Cubia do Amor
TTITLE11=Treme Treme
TTITLE12=Cochinha
TTITLE13=Dança das Gatinhas
TTITLE14=Forró do Chifrudo
TTITLE15=Eu quero me Libertar
TTITLE16=A minha casa
TTITLE17=Perereca da Vizinha
TTITLE18=Fusca a Gás
TTITLE19=Ela chorou de Amor
TTITLE20=Libera o Toim
TTITLE21=Resposta do Toim
TTITLE22=Mulheres Perdidas
TTITLE23=Riacho do Navio
TTITLE24=Cai Fora
TTITLE25=Salve o Nosso Amor
TTITLE26=Ligação Urbana
TTITLE27=Pegadinha do Mução
TTITLE28=Contato Para Shows
EXTD=
EXTT0=
EXTT1=
EXTT2=
EXTT3=
EXTT4=
EXTT5=
EXTT6=
EXTT7=
EXTT8=
EXTT9=
EXTT10=
EXTT11=
EXTT12=
EXTT13=
EXTT14=
EXTT15=
EXTT16=
EXTT17=
EXTT18=
EXTT19=
EXTT20=
EXTT21=
EXTT22=
EXTT23=
EXTT24=
EXTT25=
EXTT26=
EXTT27=
EXTT28=
PLAYORDER=
